<?xml version="1.0" standalone="no"?>
<!DOCTYPE svg PUBLIC "-//W3C//DTD SVG 20010904//EN"
 "http://www.w3.org/TR/2001/REC-SVG-20010904/DTD/svg10.dtd">
<svg version="1.0" xmlns="http://www.w3.org/2000/svg"
 width="500.000000pt" height="500.000000pt" viewBox="0 0 500.000000 500.000000"
 preserveAspectRatio="xMidYMid meet">

<g transform="translate(0.000000,500.000000) scale(0.100000,-0.100000)"
fill="#000000" stroke="none">
<path d="M1615 3826 c-175 -81 -215 -303 -79 -439 20 -19 49 -41 65 -47 l29
-12 0 -329 0 -329 79 0 79 0 4 208 c3 185 5 211 23 241 32 54 65 73 125 73 43
0 57 -4 79 -26 l26 -26 3 -235 3 -235 80 0 79 0 0 249 c0 256 -4 289 -43 345
-61 87 -257 89 -336 2 -33 -35 -41 -33 -41 9 0 33 4 37 44 54 53 23 108 76
138 134 17 32 23 59 23 117 0 65 -4 82 -30 129 -31 56 -88 106 -148 128 -56
20 -146 16 -202 -11z"/>
<path d="M2547 3203 c-4 -3 -7 -125 -7 -270 l0 -263 85 0 85 0 0 270 0 270
-78 0 c-43 0 -82 -3 -85 -7z"/>
<path d="M1895 2515 c-38 -13 -64 -37 -92 -81 -10 -16 -12 -11 -12 34 l-1 52
-80 0 -80 0 0 -325 0 -325 79 0 79 0 4 198 c3 164 7 203 22 234 26 54 59 72
136 73 l64 0 13 64 c7 36 10 68 5 73 -16 16 -97 18 -137 3z"/>
<path d="M2223 2509 c-61 -24 -123 -82 -155 -147 -20 -41 -23 -62 -23 -167 0
-107 3 -125 24 -169 31 -62 82 -113 140 -140 38 -17 65 -21 156 -21 103 0 113
2 158 28 41 24 107 96 107 116 0 4 -25 21 -56 40 l-56 33 -28 -31 c-36 -38
-67 -51 -128 -51 -84 0 -136 44 -156 132 l-6 28 217 2 218 3 -2 88 c-2 141
-53 223 -162 262 -62 22 -184 19 -248 -6z m204 -124 c26 -17 53 -70 53 -105 0
-19 -6 -20 -135 -20 -149 0 -148 0 -121 63 33 79 131 109 203 62z"/>
<path d="M2873 2514 c-61 -22 -136 -94 -164 -156 -21 -46 -24 -69 -24 -163 0
-98 3 -116 26 -165 31 -65 76 -112 138 -143 39 -19 62 -22 156 -22 94 0 116 3
151 22 42 22 114 97 114 117 0 11 -93 76 -109 76 -5 0 -16 -12 -26 -26 -33
-51 -142 -71 -211 -38 -35 17 -74 81 -74 122 0 21 2 22 213 24 l212 3 -1 90
c-2 129 -39 201 -128 247 -54 29 -210 35 -273 12z m197 -127 c25 -15 50 -66
50 -101 l0 -26 -135 0 c-151 0 -151 0 -116 69 23 44 39 59 78 71 34 11 96 4
123 -13z"/>
</g>
</svg>
